<?xml version="1.0" encoding="UTF-8"?>
<!-- Generator: visioncortex VTracer 1.0.0-alpha.3 -->
<svg viewBox="0 0 1536 1024" version="1.1" xmlns="http://www.w3.org/2000/svg" width="1536" height="1024">
<path d="M1018,91c-7.82-.13-15.3,1.15-23,2c-2.16,.24-4.44-.14-6.65,.09C975.9,94.39,963.44,95.62,951,97c-2.27,.25-4.74-.29-7,0c-9.65,1.23-19.33,1.93-29,3c-2.33,.26-4.83-.16-7.21,.05c-1.66,.14-3.2,.77-4.79,.95c-2.16,.24-4.44-.14-6.65,.09c-8.78,.92-17.57,1.94-26.35,2.91c-2,.22-4.14-.12-6.18,.05c-5.25,.43-10.58,1.37-15.82,1.95c-2.27,.25-4.73-.27-7,0c-1.33,.16-2.67,.85-4,1c-2.34,.27-4.86-.15-7.26,.06c-8.59,.73-17.16,1.99-25.74,2.94c-2.27,.25-4.73-.27-7,0c-1.33,.16-2.67,.85-4,1c-2.32,.27-4.83-.15-7.21,.05c-1.66,.14-3.2,.77-4.79,.95c-2.27,.25-4.73-.27-7,0c-5.3,.64-10.67,1.41-16,2c-2.6,.29-5.41-.32-8,0c-13.32,1.67-26.67,2.51-40,4c-2.27,.25-4.73-.27-7,0c-1.33,.16-2.67,.85-4,1c-6.17,.71-12.83,.25-19,1c-1.33,.16-2.67,.85-4,1c-6.26,.72-12.9,.51-19.21,1.05c-5.25,.45-10.56,1.37-15.79,1.95c-2.27,.25-4.73-.27-7,0c-1.33,.16-2.67,.85-4,1c-2.32,.27-4.83-.15-7.21,.05c-8.93,.77-17.88,1.97-26.79,2.95c-2.27,.25-4.74-.29-7,0c-9.65,1.23-19.33,1.91-29,3c-5.19,.59-10.55,.33-15.81,.97c-14.65,1.77-29.29,5.39-43.8,8.07C470.56,145.55,440.8,151.42,411,157c-44.89,8.41-89.79,16.76-134.6,25.72c-13.42,2.68-26.84,5.24-40.25,7.97c-2.97,.61-7.5,.13-10.15,1.31c-4.27,1.9-4.18,6.57-6,10c-.86,1.62-2.23,2.96-3.07,4.69c-.86,1.77-1.2,3.8-2.16,5.5c-.93,1.67-2.34,2.98-3.15,4.73c-1.9,4.13-3.66,10.47-5.62,14.08c-.88,1.63-2.23,2.96-3.07,4.69c-.86,1.77-1.2,3.8-2.16,5.5c-1,1.81-2.4,3.28-3.31,5.18c-1.46,3.03-1.9,6.78-3.46,9.63c-.89,1.63-2.23,2.96-3.07,4.69c-.86,1.77-1.2,3.8-2.16,5.5c-.93,1.67-2.34,2.98-3.15,4.73c-1.9,4.13-3.66,10.47-5.62,14.08c-.97,1.78-2.4,3.19-3.27,5.11c-.68,1.52-.96,3.47-1.73,4.89c-.88,1.63-2.23,2.96-3.07,4.69c-.81,1.66-1.08,3.74-1.93,5.31c-.88,1.63-2.23,2.96-3.07,4.69c-.81,1.66-1.08,3.74-1.93,5.31c-.8,1.48-2.06,2.74-2.87,4.28c-.93,1.81-1.2,4.01-2.13,5.72c-.8,1.48-2.06,2.74-2.87,4.28c-.93,1.81-1.2,4.01-2.13,5.72c-.88,1.63-2.23,2.96-3.07,4.69c-.8,1.66-1.08,3.76-1.93,5.31c-.81,1.47-2.08,2.57-2.79,4.18c-.67,1.53-.67,3.25-1.33,4.75c-.72,1.65-2.23,2.85-2.97,4.52c-.76,1.72-1.03,3.93-1.91,5.55c-.96,1.78-2.4,3.19-3.27,5.11c-.67,1.49-.95,3.53-1.73,4.89c-.96,1.67-2.63,2.5-3,4.65c-.57,3.4,1.23,8.15,1.83,11.61c.92,5.36,1.5,10.81,2.37,16.19c3.99,24.6,8.09,49.19,11.94,73.79c8.47,54.02,17.54,107.99,26,162c2.56,16.33,5.41,32.65,8,48.97c1.67,10.55,2.76,21.31,4.86,31.79c4.94,24.7,8.03,49.88,12.33,74.68c1.35,7.79,2.49,15.63,3.9,23.4c1.16,6.41,2.95,13.44,2.77,19.92c8.33,1.94,17.38,2.28,25.9,3.2c13.71,1.49,27.39,3.18,41.11,4.59c32.97,3.39,65.87,7.93,98.83,11.52c51.87,5.63,103.6,12.63,155.46,18.39c11.96,1.33,23.89,2.9,35.77,4.24c4.57,.51,9.36,.5,13.93,1.06c2.98,.37,6.05,.62,9,1c1.23,.16,2.79,1.04,4,1c1.64-.06,3.57-.85,5.32-.99c3.11-.24,6.24,.22,9.37-.01c6.59-.47,13.37-1.57,19.96-2c3.04-.2,6.36,.42,9.35,0c9.21-1.29,18.4-1.42,27.67-2.01c6.6-.41,13.39-1.56,19.98-1.99c2.84-.18,5.68,.19,8.52-.04c2.18-.19,4.19-.93,6.39-1c2.41-.08,5.06,.37,7.44,.04c8.91-1.22,17.7-1.44,26.67-2.01c2.05-.13,3.97-.86,5.98-.99c14.26-.92,28.39-1.49,42.6-2.97c3.19-.33,6.6,.41,9.75-.03c4.9-.68,9.23-.62,14.09-1.03c1.9-.16,3.69-.85,5.56-.97c2.83-.18,5.66,.2,8.5-.04c2.24-.19,4.3-.94,6.56-1c2.68-.08,5.66,.41,8.29,.04c4.94-.69,9.35-.61,14.25-1.05c1.82-.16,3.54-.82,5.34-.95c7.32-.51,14.67-.52,22.01-1c6.62-.42,13.43-1.57,20.05-2c3.04-.2,6.36,.42,9.35,0c1.91-.27,3.68-.88,5.64-1.02c7.68-.51,15.45-.45,23.14-.99c1.99-.14,3.85-.85,5.81-.99c2.74-.19,5.71,.38,8.41,0c4.9-.69,9.22-.62,14.09-1.03c1.9-.16,3.69-.85,5.56-.97c2.84-.18,5.68,.19,8.52-.04c2.18-.19,4.19-.93,6.39-1c2.41-.08,5.06,.37,7.44,.04c13.78-1.89,27.7-2.1,41.58-2.99c2.02-.13,3.89-.83,5.87-.99c3.2-.26,6.42,.22,9.64-.05c6.46-.55,13.1-1.55,19.56-1.97c2.83-.18,5.66,.2,8.5-.04c1.87-.16,3.64-.84,5.5-.96c2.84-.18,5.68,.19,8.52-.04c2.18-.19,4.19-.93,6.39-1c2.4-.08,5.07,.37,7.44,.04c1.91-.27,3.67-.89,5.64-1.02c2.8-.18,5.61,.23,8.43-.01c1.84-.15,3.57-.81,5.38-.95c3.2-.26,6.41,.23,9.62-.05c1.84-.15,3.57-.81,5.38-.95c3.04-.25,6.1,.18,9.15-.02c2.43-.15,4.67-.97,7.11-1.04c2.68-.08,5.66,.41,8.29,.04c1.91-.27,3.68-.88,5.64-1.02c2.64-.17,5.29,.2,7.94,.03c2.02-.13,3.89-.83,5.87-.99c3.04-.25,6.1,.18,9.15-.02c2.08-.13,4.02-.87,6.05-1c9.28-.6,18.34-1.01,27.59-1.97c5.1-.52,29.02-.43,31.7-2.24c2.26-1.53,8.26-19.71,9.58-23.32c2.39-6.52,5.61-12.93,8.3-19.34c5.7-13.56,11.07-27.36,16.54-41.04c14.24-35.6,29.17-70.88,43.64-106.39c4.82-11.82,9.09-23.92,14-35.7c2.87-6.88,5.94-13.83,8.56-20.82c1.25-3.33,2.07-6.91,3.44-10.18c3.91-9.3,9.12-19.57,10.94-29.52c1.76-9.59-1.62-21.35-3.42-30.87c-2.06-10.95-4.15-22.3-5.73-33.31c-5.13-35.56-12.05-70.8-17.9-106.26c-5.5-33.34-10.56-66.85-16.89-100.04c-3.66-19.2-7.25-38.59-10.28-57.9c-.69-4.41-1.82-18.64-3.7-21.68c-1.24-2-7.69-3.36-10.02-4.42c-25.32-11.46-51.37-21.31-77-32c-31.51-13.14-63.34-25.84-95.14-38.34c-15.21-5.98-30.8-11.38-45.86-17.66c-11.88-4.95-24.15-9.06-36-14c-4.53-1.89-10.03-5.04-14.8-5.89c-4.74-.84-10.37-.21-15.2-.11c0,.34,0,.67,0,1Zm-3,34c0-.33,0-.66,0-1c4.01-.1,8.83-.69,12.74,.17c4.6,1.01,9.84,3.99,14.26,5.83c15.16,6.32,30.82,11.67,46,18c20.18,8.42,40.97,15.69,61.3,23.83c36.04,14.43,71.63,29.9,107.7,44.17c4.16,1.65,24.54,9.08,26,12c1.24,2.47,.89,8.08,1.54,11.09c3.22,14.77,4.76,29.97,7.63,44.82c11.89,61.37,20.52,123.43,31.83,184.91c3.5,19.03,6.77,38.1,10,57.18c.65,3.87,4.22,18.74,3.7,21.39c-.33,1.73-1.59,3.3-2.25,4.94c-1.84,4.57-3.56,9.12-5.45,13.67c-5.51,13.23-10.01,26.97-16,40c-6.32,13.76-11.34,28.49-17,42.56c-10.92,27.14-22.08,54.14-32.96,81.35c-7.65,19.11-15.94,37.99-23.29,57.2c-1.27,3.32-6.31,18.36-8.75,19.89c-.93,.58-5.72-.11-7,0c-1.68,.15-3.39,.85-5.17,.99c-3.38,.26-6.76-.12-10.15-.02c-2.54,.07-4.9,.93-7.45,1.08c-3.06,.19-6.11-.24-9.16-.07c-2.13,.11-4.01,.74-6.07,1.02c-3.23,.45-6.85-.18-10.14-.01c-1.96,.1-3.82,.82-5.79,.98c-4.86,.42-9.18,.34-14.07,1.03c-2.7,.38-5.67-.19-8.42,0c-6.59,.46-13.38,1.58-19.98,2c-2.66,.18-5.32-.19-7.96-.02c-1.96,.14-3.73,.75-5.64,1.02c-2.63,.37-5.61-.12-8.29-.04c-2.26,.06-4.32,.81-6.56,1c-2.84,.24-5.67-.14-8.5,.04c-2.01,.13-3.93,.86-5.98,.99c-12.01,.77-24,1.23-36.02,2.01c-6.44,.42-13.06,1.42-19.5,1.96c-2.97,.25-5.96-.23-8.91,.07c-1.88,.2-3.64,.84-5.57,.96c-13.85,.88-27.93,1.09-41.67,3.01c-2.63,.37-5.61-.12-8.29-.04c-2.28,.06-4.36,.82-6.62,1.01c-2.82,.24-5.64-.18-8.45,.01c-1.96,.14-3.73,.75-5.64,1.02c-3.15,.44-6.56-.3-9.76,.03c-13.87,1.44-27.66,2.07-41.59,2.97c-1.86,.12-3.63,.8-5.5,.96c-2.84,.24-5.67-.14-8.5,.04c-6.44,.42-13.06,1.42-19.5,1.96c-2.84,.24-5.67-.14-8.5,.04c-1.86,.12-3.63,.8-5.5,.96c-4.55,.38-8.58,.41-13.15,1.04c-2.71,.37-5.67-.19-8.42,0c-1.66,.12-3.26,.73-4.93,.91c-4.64,.49-8.96,.45-13.65,1.09c-2.71,.37-5.66-.19-8.41,0c-1.8,.13-3.52,.79-5.34,.95c-4.9,.44-9.31,.36-14.25,1.05c-2.99,.42-6.31-.2-9.35,0c-2.01,.13-3.93,.86-5.98,.99c-9.27,.59-18.46,.72-27.67,2.01c-2.99,.42-6.31-.2-9.35,0c-1.87,.12-3.66,.81-5.56,.97c-4.87,.41-9.19,.34-14.09,1.03c-2.37,.33-5.04-.12-7.44-.04c-2.2,.07-4.21,.81-6.39,1c-2.84,.23-5.68-.14-8.52,.04c-2.01,.13-3.93,.86-5.98,.99c-16.95,1.08-33.84,2.12-50.81,3c-2.09,.11-4.08,.87-6.19,1.02c-3.25,.23-6.49-.18-9.73-.02c-2.07,.1-4.05,.85-6.14,1.02c-5.92,.49-12.45,.32-18.39,.12c-2.25-.08-4.24-.86-6.41-1.13c-6.28-.79-12.68-1.22-19-2c-7.62-.94-15.5-1.05-23.1-2.08c-6.95-.94-13.91-2.05-20.9-2.92c-42.51-5.28-85.15-9.59-127.67-14.82c-5.08-.62-10.38-.58-15.43-1.26c-30.2-4.07-60.63-7.16-90.9-10.92c-11.37-1.41-22.8-2.24-34.17-3.75c-5.01-.66-8.89-.6-13.83-2.25c.22-9.6-3.04-25.27-5-35c-3.99-19.82-6.67-40.28-9.83-60.26c-6.99-44.29-13.48-88.81-21.11-133.01c-3.21-18.62-5.79-37.4-9-56c-3.13-18.12-6.64-36.27-8.78-54.55c-.43-3.73-1.63-7.35-2.19-11.08c-2.29-15.37-4.5-30.76-7.09-46.1c-1.57-9.28-4.94-20.38-3.43-29.73c.71-4.43,2.47-5.66,4.43-9.27c1.47-2.72,1.94-6.31,3.26-9.2c.95-2.09,2.42-3.65,3.51-5.61c.96-1.7,1.3-3.73,2.16-5.5c.84-1.73,2.19-3.06,3.07-4.69c.77-1.42,1.05-3.37,1.73-4.89c.87-1.93,2.3-3.33,3.27-5.11c1.56-2.85,2-6.6,3.46-9.63c.96-1.99,2.52-3.55,3.48-5.49c.89-1.8,1.26-3.8,2.19-5.6c.81-1.54,2.07-2.8,2.87-4.28c.93-1.71,1.2-3.91,2.13-5.72c.81-1.54,2.07-2.8,2.87-4.28c.77-1.42,1.05-3.37,1.73-4.89c.87-1.93,2.3-3.33,3.27-5.11c1.48-2.7,1.94-6.32,3.26-9.2c.95-2.09,2.42-3.65,3.51-5.61c.96-1.7,1.3-3.73,2.16-5.5c.84-1.73,2.19-3.06,3.07-4.69c1.96-3.61,3.72-9.95,5.62-14.08c.81-1.75,2.22-3.06,3.15-4.73c.96-1.7,1.3-3.73,2.16-5.5c.84-1.73,2.19-3.06,3.07-4.69c2.43-4.48,4.08-15.64,9-18c2.34-1.12,6.35-1.27,8.96-1.79c9.71-1.94,19.61-3.46,29.27-5.54c25.42-5.49,51.05-10.53,76.62-15.26c12.28-2.27,24.69-4.1,36.92-6.64c24.35-5.06,48.81-9.19,73.23-13.77c19.66-3.68,39.35-7.32,59-11c4.78-.9,9.38-2.15,14.24-2.82c5.57-.77,11.28-.47,16.76-1.18c1.77-.23,3.38-.86,5.22-.98c2.23-.15,4.61,.23,6.78-.02c1.33-.15,2.67-.84,4-1c2.26-.27,4.71,.15,7,0c1.4-.09,2.89-.75,4.35-.91c2.23-.23,4.44,.05,6.65-.09c1.55-.1,3.18-.81,4.82-.95c13.07-1.07,26.08-2.22,39.18-3.05c5.16-.33,10.61-1.5,15.79-1.95c6.39-.55,12.8-.64,19.21-1.05c1.72-.11,3.49-.87,5.3-.99c2.2-.15,4.55,.24,6.7-.01c1.33-.15,2.67-.84,4-1c6.17-.75,12.83-.29,19-1c1.33-.15,2.67-.84,4-1c2.27-.27,4.73,.25,7,0c5.67-.64,11.34-1.29,17-2c2.57-.32,5.39,.17,8,0c5.22-.34,10.81-1.37,16-2c2.27-.27,4.73,.25,7,0c11.37-1.27,22.56-2.27,34-3c1.4-.09,2.89-.75,4.35-.91c2.23-.23,4.44,.05,6.65-.09c5.16-.33,10.61-1.5,15.79-1.95c2.38-.2,4.89,.22,7.21-.05c1.33-.15,2.67-.84,4-1c2.26-.27,4.71,.15,7,0c1.56-.1,3.18-.81,4.82-.95c5.96-.49,12.27-.37,18.18-1.05c1.33-.15,2.67-.84,4-1c6.17-.75,12.83-.29,19-1c1.33-.15,2.67-.84,4-1c2.27-.27,4.73,.25,7,0c5.33-.6,10.7-1.36,16-2c2.27-.27,4.73,.25,7,0c1.59-.18,3.13-.81,4.79-.95c2.38-.2,4.89,.22,7.21-.05c1.33-.15,2.67-.84,4-1c2.27-.27,4.73,.26,7,0c1.33-.15,2.67-.84,4-1c1.93-.23,4.04,.13,6,0c1.4-.09,2.88-.75,4.34-.9c5.82-.58,11.89-.46,17.66-1.1c1.34-.15,2.67-.84,4-1c1.94-.24,4.06,.25,6,0c6.97-.9,15-2.16,22-2Z" fill="#000000"/>
<path d="M895,216c-2.72,0-5.36,0-8,0c0,.34,0,.67,0,1c-3.63-.08-6.56,.78-10,1c-5.23,.33-10.45,.58-15.66,1.1c-1.46,.15-2.94,.81-4.34,.9c-19.57,1.25-39.38,3.63-58.93,6.09c-30,3.77-59.93,7.61-89.86,11.94c-31.08,4.49-62.09,9.7-93.21,13.97c-1.23,3.7-.05,5.29,.05,8.93c.26,9.84,.83,19.52,1.92,29.28c.29,2.6-.13,5.26,.07,7.88c.19,2.44,1.01,4.65,1.02,7.13c.01,2.18-.36,4.63-.06,6.78c1.2,8.73,1.38,17.37,2.05,26.14c.41,5.34,1.53,10.74,1.96,16.07c.2,2.55-.36,5.27-.01,7.79c.82,6.01,1.33,11.98,2,18c.29,2.6-.32,5.41,0,8c.71,5.66,1.37,11.33,2,17c.29,2.6-.32,5.41,0,8c.71,5.66,1.37,11.33,2,17c.29,2.6-.32,5.41,0,8c.23,1.84,.88,3.57,1.02,5.46c.18,2.56-.19,5.13,.02,7.71c.16,1.85,.83,3.59,.96,5.41c.88,12.57,1.62,24.92,3,37.42c.29,2.6-.32,5.41,0,8c.71,5.66,1.36,11.33,2,17c.25,2.27-.27,4.73,0,7c.16,1.33,.85,2.67,1,4c.3,2.59-.32,5.41,0,8c.71,5.69,1.28,11.32,2,17c.25,1.94-.24,4.06,0,6c.16,1.33,.85,2.66,1,4c.7,6.28,.51,12.9,1.05,19.21c.45,5.25,1.37,10.56,1.95,15.79c.25,2.27-.27,4.73,0,7c.16,1.33,.85,2.67,1,4c.3,2.59-.32,5.41,0,8c.71,5.69,1.28,11.32,2,17c.25,1.94-.23,4.06,0,6c.16,1.33,.85,2.67,1,4c.26,2.27-.27,4.73,0,7c.16,1.33,.85,2.67,1,4c.72,6.26,.51,12.9,1.05,19.21c.45,5.26,1.35,10.57,1.95,15.79c.27,2.32-.15,4.83,.05,7.21c.77,8.93,1.97,17.88,2.95,26.79c.25,2.27-.27,4.73,0,7c.16,1.33,.85,2.67,1,4c.27,2.34-.15,4.86,.06,7.26c.14,1.65,.74,3.15,.94,4.74c.25,1.94-.23,4.06,0,6c.6,4.98,1.35,10,2,15c.44,3.38,.22,6.58,1,10c29.61-3.64,59.07-7.64,88.76-10.63c11.02-1.12,23.22-3.58,34.24-3.37c.08-4.03-.57-7.11-1-11c-.24-2.17,.13-4.47-.1-6.69c-.49-4.76-1.37-9.56-1.9-14.31c-.18-1.62,.2-3.38,0-5c-.16-1.33-.85-2.67-1-4c-.22-1.95,.23-4.06,0-6c-.16-1.33-.85-2.67-1-4c-.62-5.45-.55-11.17-1.1-16.66c-2.09-20.81-4.6-41.54-6.9-62.34c-.58-5.23-.37-10.8-1-16c-.16-1.33-.85-2.67-1-4c-.59-5.22-.35-10.78-1-16c-.16-1.33-.85-2.66-1-4c-.58-5.23-.37-10.77-1-16c-.84-6.92-2.14-13.94-2-21c19.9-3.57,40.73-4.89,60.86-6.99c14.12-1.48,29.04-4.25,43.14-4.01c0-2.53-.35-5.52,0-8c.42-2.95,1.1-5.53,1.11-8.57c.02-3.55-1.14-6.75-1.24-10.28c-.51-18.78-.45-38.04,.02-56.83c.07-2.64,1-5.23,1.05-7.73c.09-4.18-.96-8.54-.97-12.86c-.01-2.77,.77-5.12,1.03-7.84c.28-2.89,.05-5.97,0-8.89c-4.52-1.51-13.11,.36-18,1c-4.39,.57-9.12,.45-13.6,.94c-17.3,1.88-34.63,3.48-51.94,5.21C770.87,435.31,759.63,437,748,437c.13-7.74-1.15-15.1-1.96-22.73c-.64-5.97-.27-12.32-1.04-18.27c-1.24-9.63-2.14-19.22-2-29c5.59-1.86,11.21-2.26,17-3c11.22-1.44,22.43-2.87,33.65-4.38c23.34-3.16,46.71-5.96,70.16-8.17c8.14-.76,15.94-2.61,24.19-2.45c-.1-6.1,.8-11.23,.99-17.1c.13-3.85-.49-8.12,.01-11.9c.34-2.6,.91-4.97,.99-7.63c.13-3.86-.26-7.74-.03-11.59c.14-2.44,.99-4.71,1.09-7.12c.17-4.29-.32-8.61-.08-12.9c.12-2.33,.93-4.49,1.05-6.78c.24-4.54-.61-9.5-.02-13.98c.8-6.1,.58-11.66,1-17.72c.16-2.21,.93-4.28,1.01-6.47c.27-6.77-.29-13.07,.99-19.81Z" fill="#000000"/>
<path d="M1165,510c16.91-14.15,33.48-28.4,50.39-42.5c5.28-4.39,14.76-13.99,20.61-16.5c-2.89-13.61-4.87-27.47-7.43-41.16c-5.41-28.95-11.14-57.88-16.57-86.84c-.92-4.93-4.64-32.93-6-35c-1.79-2.72-8.43-2.27-11.16-3.16c-1.44-.47-2.69-1.43-4.14-1.83c-1.8-.49-3.99-.4-5.7-1.01c-1.69-.6-3.11-1.55-4.91-2.01c-1.92-.48-4.27-.38-6.09-.99c-1.52-.51-2.87-1.42-4.46-1.88c-2.09-.6-4.56-.46-6.54-1.12c-1.85-.62-3.4-1.65-5.38-2.11c-1.75-.41-3.96-.34-5.62-.89c-1.68-.56-3.13-1.54-4.91-2c-1.93-.5-4.27-.39-6.09-1c-1.85-.62-3.4-1.65-5.38-2.11c-1.75-.41-3.96-.34-5.62-.89c-1.85-.62-3.4-1.65-5.38-2.11c-1.75-.41-3.96-.34-5.62-.89c-1.68-.56-3.13-1.54-4.91-2c-1.92-.5-4.27-.39-6.09-1c-1.71-.58-3.18-1.54-5-1.99c-2.09-.52-4.25-.5-6.33-1.01c-1.86-.45-3.4-1.62-5.22-2.03c-2.01-.45-4.55-.33-6.45-.97c-1.89-.64-3.44-1.66-5.46-2.1c-2.06-.46-4.6-.26-6.54-.9c-1.68-.55-3.08-1.65-4.88-2.09c-2.13-.51-4.37-.41-6.52-.95c-1.96-.49-3.6-1.7-5.57-2.07c-1.84-.35-4.28-.31-6.03-.89c-1.78-.59-3.27-1.58-5.17-2.03c-2.35-.54-4.79-.39-7.13-.96c-1.9-.47-3.52-1.56-5.41-2.04c-2.35-.6-5.02-.24-7.29-.97c-1.88-.6-3.45-1.65-5.46-2.09c-2.41-.52-4.9-.35-7.28-1.02c-1.67-.47-3.11-1.56-4.78-1.95c-2.15-.52-4.39-.41-6.56-.91c-1.78-.41-3.31-1.55-5.01-1.91c-1.57-.35-3.27,.09-4.85-.24c-2.25-.47-4.16-1.95-6.56-2.44c-4.44-.92-10.39-1.07-14.5-2.44c-2.06-.69-3.73-1.76-5.94-2.2c-1.87-.37-4.3-.2-6.06-.8c-1.53-.52-2.73-1.47-4.38-1.79c-1.87-.36-3.84,.06-5.66-.36c-3.66-.84-5.72-2.27-9.96-2.85c-1.5,5.43-1.63,11.03-2.37,16.59c-1.86,13.98-3.09,28.04-4.87,42.04c-6.25,49.09-10.98,98.4-16.82,147.54c-8.98,75.49-18.14,150.97-25.92,226.6c-2.04,19.83-4.48,39.7-6.72,59.52c-1.43,12.73-3.3,24.82-3.3,37.71c6.32,2.06,12.63,.16,19,1c2.92,.38,5.53,.97,8.53,1.01c3.36,.05,7.17-.45,10.47-.01c2.6,.34,4.96,.91,7.62,.99c4,.13,8.46-.52,12.38,.01c2.05,.28,3.92,1.05,6.04,1.1c5.12,.12,10.94-.86,15.96-.1c8.54,1.3,16.47,.79,25.08,.95c3.01,.05,5.83,1.1,8.88,1.15c7.69,.12,15.39-.29,23.08-.15c2.75,.05,5.26,1.08,8.01,1.16c12.33,.4,24.77-.36,37.12-.2c3.15,.03,5.98,1.1,9.1,1.22c13.79,.52,27.8,.05,41.62,.06c18.39,0,36.78,.07,55.17,.06c3.06,0,12.63,1,14.94-.25c2.45-1.32,2.35-4.67,3.05-6.91c.62-1.94,1.8-3.71,2.49-5.65c2.81-7.94,5.54-15.95,8.3-23.9c7.93-22.92,15.77-45.87,24.16-68.54c2.61-7.06,23.9-66.55,23-69c-1.28-3.47-8.31-7.28-11-10c-2.74-2.77-5.05-5.8-7.98-8.44c-2.88-2.6-6.32-4.8-9.02-7.56c-2.61-2.67-4.82-5.58-7.61-8.13c-2.17-1.98-4.64-3.57-6.79-5.55c-2.59-2.39-4.57-5.31-7.2-7.69c-4.72-4.26-9.95-8.28-14.43-12.78c-1.41-1.42-3.43-4.95-4.97-5.85c-5.01-2.92-4.07-2-8-7ZM1041,356c5.06,.58,7.21,1.92,11.7,3.01c2.63,.63,5.35,.43,7.98,1.19c1.49,.42,2.91,1.42,4.32,1.8c1.43,.39,3.49-.15,5,0c3.93,.39,9.82,1.77,13.6,2.95c1.49,.46,2.73,1.4,4.27,1.79c1.77,.44,3.38,.11,5.13,.26c4.41,.38,9.93,2.26,14,4c0,10.24,.32,20.52,.11,30.75c-.05,2.57-.72,4.77-1.11,7.25c-1.04,6.69-.06,15.14,0,22c-6,2-13.04,7.98-18,12c-1.47,1.19-3.5,1.84-5,3c-1.47,1.14-2.28,2.37-4.07,3.22c-.5,.24-1.42,.71-1.93,.78c-.94,.12-2.98-.8-4-1c-8.88-1.75-18.09-2.2-27-4c-4.73-.95-9.59-.8-14-3c-.09-5.66,.94-10.66,1.46-16.22c1.59-17.11,4.08-34.13,5.78-51.24c.61-6.09,1.76-12.44,1.76-18.54Zm-22,197c6.94,.81,13.98,2.05,20.77,3.72c1.89,.47,3.44,1.78,5.29,2.16c1.73,.36,3.48-.03,5.23,.47c1.29,.36,2.5,1.35,3.71,1.65c1.13,.28,2.79-.06,4.02,.08c2.14,.25,7.42,2.17,9.2,3.33c6.68,4.33,11.31,11.89,17.45,16.78c3.02,2.41,15.27,12.93,16.23,16.03c1.11,3.6-4.08,23.66-5.08,28.69c-.87,4.34-3.59,23.01-6.82,25.09c-.18,.12-67.14-6.34-73.35-7.18c-2.56-.35-5.14-1.19-7.65-1.82c3.03-20.34,5.38-40.86,7.8-61.29c1.07-9.02,3.2-18.7,3.2-27.71Z" fill="#000000"/>
<path d="M603,789c-1.75-5.35-.67-10.78-.88-16.26c-.1-2.59-.97-4.98-1.11-7.5c-.25-4.22,.06-8.52,0-12.75c-.03-1.92-.83-4.02-.98-6.01c-.29-3.74,.26-7.5,.06-11.25c-.13-2.38-.94-4.61-1.08-6.93c-.62-10.14-.34-20.4-.97-30.54c-.14-2.29-.94-4.45-1.05-6.7c-.17-3.57,.5-7.55,.01-11.06c-.29-2.04-.88-3.9-1.01-6c-.21-3.75,.33-7.5,.07-11.25c-.15-2.21-.92-4.29-1.05-6.45c-.58-9.47-.36-19.01-.95-28.47c-.14-2.24-.92-4.34-1.05-6.53c-.58-9.47-.36-19.01-.95-28.47c-.14-2.24-.92-4.34-1.05-6.53c-.57-9.31-.48-18.64-.92-27.96c-.12-2.6-1.01-5.02-1.1-7.57c-.16-4.13,.56-8.72,.01-12.77c-.81-5.99-.52-11.28-.93-17.23c-.18-2.59-1.03-4.98-1.1-7.57c-.09-3.47,.3-6.94,.08-10.41c-.13-2.15-.86-4.14-1.03-6.24c-.24-2.95,.15-5.91,0-8.86c-.25-4.71-1.1-8.83-1.02-13.69c-6.9-.13-13.27,1.23-20,2c-2.71,.31-5.56,.02-8.32,.32c-26.13,2.82-52.33,6.08-78.34,9.7c-9.31,1.3-18.59,2.62-27.95,3.68c-4.32,.5-7.95,1.4-12.39,1.3c-.05,4.12-.58,8.96,0,13c.34,2.4,.97,4.52,1.05,7c.12,3.88-.56,8.18-.05,12c.25,1.9,.93,3.67,1.07,5.64c.37,5.2-.38,10.53-.1,15.76c.12,2.12,.86,4.08,1.01,6.16c.33,4.71-.6,9.81,.02,14.44c1.13,8.5,1.07,16.38,1,25c5.96,0,12.13-.29,18-1c1.33-.16,2.67-.85,4-1c7.23-.83,14.7-1.21,22-2c.04,14.3,.07,28.6,.09,42.9c.01,7.26,1.03,16.14-1.09,23.1c-29.33-3.31-58.72-7-88-10c.11-5.47-.7-9.6-1.02-14.82c-.17-2.78,.21-5.57,.06-8.36c-.12-2.3-.93-4.43-1.05-6.68c-.41-7.92-.48-15.83-.99-23.74c-.13-2.08-.87-4.02-1-6.05c-.2-3.04,.43-6.37,0-9.35c-.78-5.49-.57-10.3-.99-15.75c-.54-6.87-1.44-13.83-1.99-20.7c-.28-3.45,.45-7.16-.02-10.55c-.27-1.97-.89-3.79-1.02-5.82c-.18-2.95,.24-5.91,.02-8.87c-.17-2.4-.97-4.61-1.04-7.02c-.08-2.67,.42-5.67,.04-8.29c-.73-5.13-.62-9.55-.99-14.65c-.16-2.32-.96-4.48-1.04-6.81c-.11-3.39,.5-7.21,.03-10.54c-.35-2.51-1.05-4.71-1.06-7.31c-.02-3.43,.51-7.32,.06-10.69c-.97-7.24-1.07-13.65-1-21c5.06-2.53,11.46-2.64,17.03-3.43c8.25-1.18,16.49-2.44,24.71-3.74C459.09,412.56,492.63,407.74,526,404c5.67-.64,11.43-.61,17.12-1.05c5.74-.44,11.57-1.55,17.32-1.97c4.65-.33,8.93,.25,13.56-.98c-1.85-6.43-.87-13.4-.93-20.02c-.03-2.84-.99-5.39-1.11-8.15c-.19-4.34,.36-8.71,.09-13.05c-.14-2.22-.91-4.31-1.04-6.49c-.22-3.51,.25-7.02,.04-10.54c-.13-2.15-.87-4.15-1.03-6.24c-.25-3.23,.19-6.46,.02-9.69c-.12-2.17-.85-4.16-1.02-6.27c-.28-3.44,.46-7.17-.02-10.55c-.28-1.95-.87-3.74-1-5.74c-.23-3.48,.27-6.96,.06-10.45c-.13-2.06-.77-3.92-1.01-5.93c-.39-3.34,.15-6.78-.03-10.15c-.21-4.06-1.12-7.53-1.02-11.73c-2.72,0-5.36,0-8,0c0,.34,0,.67,0,1c-4.12-.08-7.67,.8-11.62,.98c-18.78,.89-37.63,3.35-56.28,5.85c-45.33,6.1-90.31,13.9-135.28,22.17c-14.12,2.6-28.53,4.62-42.55,7.66c-2.13,.47-7.69,.34-9.27,1.34c-.57,.36-9.37,13.68-10,15c-.54,1.14-.7,2.37-1.39,3.46c-10.23,16.33-20.63,32.68-29.78,49.49c-1.88,3.45-7.35,9.81-7.9,13.34c-.45,2.86,.77,5.02,1.07,7.71c.25,2.27-.27,4.73,0,7c.16,1.33,.85,2.67,1,4c.45,4,.47,7.93,1,12c.21,1.61-.2,3.38,0,5c.16,1.33,.85,2.66,1,4c.63,5.64,.6,11.55,1.06,17.22c.4,4.92,1.38,9.9,1.94,14.78c.63,5.54,.33,11.47,1,17c.6,4.96,1.45,10.01,2,15c.57,5.23,.37,10.77,1,16c.16,1.33,.85,2.67,1,4c.21,1.83-.09,3.78,.1,5.66c.81,8.12,1.99,16.23,2.9,24.34c.18,1.62-.2,3.38,0,5c.16,1.33,.85,2.67,1,4c.74,6.49,.84,13.13,1.5,19.67c2.32,22.97,4.73,45.98,7.33,68.93c.21,1.85,.96,3.6,1.17,5.4c.21,1.84-.08,3.81,.11,5.7c.73,7.44,2.06,14.87,2.89,22.3c.75,6.7,1.02,13.53,1.84,20.26c1.73,14.26,4.41,28.53,6.16,42.74c.49,3.97,.37,7.97,1,12c51.29,8.76,103.02,15.29,154.44,23.36C457.21,770.05,468.31,771,479,773c23.29,4.36,47.13,7.15,70.63,10.5c17.53,2.5,35.72,5.77,53.37,5.5Z" fill="#000000"/>
</svg>
